<mxfile host="app.diagrams.net" agent="Mozilla/5.0 (Windows NT 10.0; Win64; x64) AppleWebKit/537.36 (KHTML, like Gecko) Chrome/133.0.0.0 Safari/537.36" version="26.0.16">
  <diagram name="第 1 页" id="f98EoK7rW7siKFQOVWCd">
    <mxGraphModel dx="988" dy="523" grid="1" gridSize="10" guides="1" tooltips="1" connect="1" arrows="1" fold="1" page="1" pageScale="1" pageWidth="827" pageHeight="1169" math="0" shadow="0">
      <root>
        <mxCell id="0" />
        <mxCell id="1" parent="0" />
        <mxCell id="5JmAVNSWhE5RKQXvFqZS-1" value="" style="endArrow=classic;html=1;rounded=0;" edge="1" parent="1">
          <mxGeometry width="50" height="50" relative="1" as="geometry">
            <mxPoint x="200" y="600" as="sourcePoint" />
            <mxPoint x="620" y="600" as="targetPoint" />
          </mxGeometry>
        </mxCell>
        <mxCell id="5JmAVNSWhE5RKQXvFqZS-2" value="" style="endArrow=classic;html=1;rounded=0;" edge="1" parent="1">
          <mxGeometry width="50" height="50" relative="1" as="geometry">
            <mxPoint x="200" y="600" as="sourcePoint" />
            <mxPoint x="200" y="400" as="targetPoint" />
          </mxGeometry>
        </mxCell>
        <mxCell id="5JmAVNSWhE5RKQXvFqZS-5" value="&lt;font style=&quot;font-size: 10px;&quot; face=&quot;Times New Roman&quot;&gt;&lt;i&gt;L/U&lt;/i&gt;&lt;/font&gt;" style="text;html=1;align=center;verticalAlign=middle;resizable=0;points=[];autosize=1;strokeColor=none;fillColor=none;" vertex="1" parent="1">
          <mxGeometry x="140" y="580" width="40" height="30" as="geometry" />
        </mxCell>
        <mxCell id="5JmAVNSWhE5RKQXvFqZS-6" value="&lt;i style=&quot;font-family: &amp;quot;Times New Roman&amp;quot;; font-size: 10px;&quot;&gt;machine1&lt;/i&gt;" style="text;html=1;align=center;verticalAlign=middle;resizable=0;points=[];autosize=1;strokeColor=none;fillColor=none;" vertex="1" parent="1">
          <mxGeometry x="130" y="540" width="60" height="30" as="geometry" />
        </mxCell>
        <mxCell id="5JmAVNSWhE5RKQXvFqZS-7" value="&lt;i style=&quot;font-family: &amp;quot;Times New Roman&amp;quot;; font-size: 10px;&quot;&gt;machine2&lt;/i&gt;" style="text;html=1;align=center;verticalAlign=middle;resizable=0;points=[];autosize=1;strokeColor=none;fillColor=none;" vertex="1" parent="1">
          <mxGeometry x="130" y="500" width="60" height="30" as="geometry" />
        </mxCell>
        <mxCell id="5JmAVNSWhE5RKQXvFqZS-8" value="&lt;i style=&quot;font-family: &amp;quot;Times New Roman&amp;quot;; font-size: 10px;&quot;&gt;machine3&lt;/i&gt;" style="text;html=1;align=center;verticalAlign=middle;resizable=0;points=[];autosize=1;strokeColor=none;fillColor=none;" vertex="1" parent="1">
          <mxGeometry x="130" y="460" width="60" height="30" as="geometry" />
        </mxCell>
        <mxCell id="5JmAVNSWhE5RKQXvFqZS-10" value="&lt;font face=&quot;Times New Roman&quot;&gt;&lt;span style=&quot;font-size: 10px;&quot;&gt;&lt;i&gt;charging area&lt;/i&gt;&lt;/span&gt;&lt;/font&gt;" style="text;html=1;align=center;verticalAlign=middle;resizable=0;points=[];autosize=1;strokeColor=none;fillColor=none;" vertex="1" parent="1">
          <mxGeometry x="120" y="410" width="80" height="30" as="geometry" />
        </mxCell>
        <mxCell id="5JmAVNSWhE5RKQXvFqZS-12" value="&lt;span style=&quot;font-size: 8.33333px;&quot;&gt;O&lt;sub&gt;21&lt;/sub&gt;&lt;/span&gt;" style="rounded=0;whiteSpace=wrap;html=1;fontSize=10;fontStyle=2;fontFamily=Times New Roman;fillColor=#d5e8d4;strokeColor=#82b366;" vertex="1" parent="1">
          <mxGeometry x="240" y="465" width="50" height="20" as="geometry" />
        </mxCell>
        <mxCell id="5JmAVNSWhE5RKQXvFqZS-13" value="&lt;sub&gt;&lt;span&gt;O&lt;/span&gt;12&lt;/sub&gt;" style="rounded=0;whiteSpace=wrap;html=1;fontSize=10;fontFamily=Times New Roman;fontStyle=2;fillColor=#d0cee2;strokeColor=#56517e;" vertex="1" parent="1">
          <mxGeometry x="320" y="505" width="50" height="20" as="geometry" />
        </mxCell>
        <mxCell id="5JmAVNSWhE5RKQXvFqZS-14" value="O&lt;sub&gt;22&lt;/sub&gt;" style="rounded=0;whiteSpace=wrap;html=1;fontSize=10;fontStyle=2;fontFamily=Times New Roman;fillColor=#d5e8d4;strokeColor=#82b366;" vertex="1" parent="1">
          <mxGeometry x="330" y="545" width="50" height="20" as="geometry" />
        </mxCell>
        <mxCell id="5JmAVNSWhE5RKQXvFqZS-15" value="&lt;font&gt;O&lt;sub&gt;31&lt;/sub&gt;&lt;/font&gt;" style="rounded=0;whiteSpace=wrap;html=1;fontFamily=Times New Roman;fillColor=#ffe6cc;strokeColor=#d79b00;fontStyle=2;fontSize=10;" vertex="1" parent="1">
          <mxGeometry x="402" y="470" width="66" height="20" as="geometry" />
        </mxCell>
        <mxCell id="5JmAVNSWhE5RKQXvFqZS-16" value="charge" style="rounded=0;whiteSpace=wrap;html=1;fontFamily=Times New Roman;fontStyle=2;fontSize=10;fillColor=#f8cecc;strokeColor=#b85450;gradientColor=#ea6b66;" vertex="1" parent="1">
          <mxGeometry x="480" y="420" width="50" height="20" as="geometry" />
        </mxCell>
        <mxCell id="5JmAVNSWhE5RKQXvFqZS-17" value="charge" style="rounded=0;whiteSpace=wrap;html=1;fontFamily=Times New Roman;fontStyle=2;fontSize=10;fillColor=#dae8fc;gradientColor=#7ea6e0;strokeColor=#6c8ebf;" vertex="1" parent="1">
          <mxGeometry x="418" y="420" width="50" height="20" as="geometry" />
        </mxCell>
        <mxCell id="5JmAVNSWhE5RKQXvFqZS-18" value="&lt;font style=&quot;font-size: 10px;&quot;&gt;&lt;i&gt;O&lt;sub style=&quot;&quot;&gt;32&lt;/sub&gt;&lt;/i&gt;&lt;/font&gt;" style="rounded=0;whiteSpace=wrap;html=1;fontFamily=Times New Roman;fillColor=#ffe6cc;strokeColor=#d79b00;" vertex="1" parent="1">
          <mxGeometry x="490" y="505" width="60" height="20" as="geometry" />
        </mxCell>
        <mxCell id="5JmAVNSWhE5RKQXvFqZS-19" value="&lt;span&gt;&lt;sub&gt;&lt;span&gt;O&lt;/span&gt;11&lt;/sub&gt;&lt;/span&gt;" style="rounded=0;whiteSpace=wrap;html=1;fontSize=10;fontFamily=Times New Roman;fontStyle=2;fillColor=#d0cee2;strokeColor=#56517e;" vertex="1" parent="1">
          <mxGeometry x="225" y="545" width="80" height="20" as="geometry" />
        </mxCell>
        <mxCell id="5JmAVNSWhE5RKQXvFqZS-20" value="" style="endArrow=classic;html=1;rounded=0;entryX=0;entryY=0.5;entryDx=0;entryDy=0;strokeColor=light-dark(#66c4ff, #004a4a);endSize=3;" edge="1" parent="1" target="5JmAVNSWhE5RKQXvFqZS-19">
          <mxGeometry width="50" height="50" relative="1" as="geometry">
            <mxPoint x="200" y="600" as="sourcePoint" />
            <mxPoint x="260" y="520" as="targetPoint" />
          </mxGeometry>
        </mxCell>
        <mxCell id="5JmAVNSWhE5RKQXvFqZS-21" value="" style="endArrow=classic;html=1;rounded=0;entryX=0;entryY=0.5;entryDx=0;entryDy=0;strokeColor=light-dark(#66c4ff, #004a4a);exitX=1;exitY=0.5;exitDx=0;exitDy=0;jumpSize=6;endSize=3;" edge="1" parent="1" source="5JmAVNSWhE5RKQXvFqZS-19" target="5JmAVNSWhE5RKQXvFqZS-13">
          <mxGeometry width="50" height="50" relative="1" as="geometry">
            <mxPoint x="303" y="550" as="sourcePoint" />
            <mxPoint x="340" y="505" as="targetPoint" />
          </mxGeometry>
        </mxCell>
        <mxCell id="5JmAVNSWhE5RKQXvFqZS-23" value="" style="endArrow=classic;html=1;rounded=0;entryX=0;entryY=0.5;entryDx=0;entryDy=0;strokeColor=#FF6666;endSize=3;fillColor=#fad9d5;" edge="1" parent="1" target="5JmAVNSWhE5RKQXvFqZS-12">
          <mxGeometry width="50" height="50" relative="1" as="geometry">
            <mxPoint x="200" y="600" as="sourcePoint" />
            <mxPoint x="250" y="565" as="targetPoint" />
          </mxGeometry>
        </mxCell>
        <mxCell id="5JmAVNSWhE5RKQXvFqZS-24" value="" style="endArrow=classic;html=1;rounded=0;strokeColor=#FF6666;endSize=3;fillColor=#fad9d5;exitX=1;exitY=0.5;exitDx=0;exitDy=0;entryX=0;entryY=0.5;entryDx=0;entryDy=0;" edge="1" parent="1" source="5JmAVNSWhE5RKQXvFqZS-12" target="5JmAVNSWhE5RKQXvFqZS-14">
          <mxGeometry width="50" height="50" relative="1" as="geometry">
            <mxPoint x="310" y="475" as="sourcePoint" />
            <mxPoint x="380" y="555" as="targetPoint" />
          </mxGeometry>
        </mxCell>
        <mxCell id="5JmAVNSWhE5RKQXvFqZS-36" value="" style="endArrow=classic;html=1;rounded=0;strokeColor=light-dark(#66c4ff, #004a4a);jumpSize=6;endSize=3;exitX=1;exitY=0.5;exitDx=0;exitDy=0;" edge="1" parent="1" source="5JmAVNSWhE5RKQXvFqZS-13">
          <mxGeometry width="50" height="50" relative="1" as="geometry">
            <mxPoint x="400" y="520" as="sourcePoint" />
            <mxPoint x="390" y="600" as="targetPoint" />
          </mxGeometry>
        </mxCell>
        <mxCell id="5JmAVNSWhE5RKQXvFqZS-37" value="" style="endArrow=classic;html=1;rounded=0;strokeColor=light-dark(#66c4ff, #004a4a);jumpSize=6;endSize=3;entryX=0;entryY=0.5;entryDx=0;entryDy=0;" edge="1" parent="1" target="5JmAVNSWhE5RKQXvFqZS-15">
          <mxGeometry width="50" height="50" relative="1" as="geometry">
            <mxPoint x="390" y="600" as="sourcePoint" />
            <mxPoint x="430" y="490" as="targetPoint" />
          </mxGeometry>
        </mxCell>
        <mxCell id="5JmAVNSWhE5RKQXvFqZS-38" value="" style="endArrow=classic;html=1;rounded=0;strokeColor=#FF6666;endSize=3;fillColor=#fad9d5;exitX=1;exitY=0.5;exitDx=0;exitDy=0;" edge="1" parent="1" source="5JmAVNSWhE5RKQXvFqZS-14">
          <mxGeometry width="50" height="50" relative="1" as="geometry">
            <mxPoint x="444" y="565" as="sourcePoint" />
            <mxPoint x="400" y="600" as="targetPoint" />
          </mxGeometry>
        </mxCell>
        <mxCell id="5JmAVNSWhE5RKQXvFqZS-39" value="" style="endArrow=classic;html=1;rounded=0;strokeColor=light-dark(#66c4ff, #004a4a);jumpSize=6;endSize=3;entryX=-0.013;entryY=0.4;entryDx=0;entryDy=0;entryPerimeter=0;exitX=0;exitY=0.5;exitDx=0;exitDy=0;dashed=1;" edge="1" parent="1" source="5JmAVNSWhE5RKQXvFqZS-15" target="5JmAVNSWhE5RKQXvFqZS-17">
          <mxGeometry width="50" height="50" relative="1" as="geometry">
            <mxPoint x="420" y="610" as="sourcePoint" />
            <mxPoint x="441" y="485" as="targetPoint" />
          </mxGeometry>
        </mxCell>
        <mxCell id="5JmAVNSWhE5RKQXvFqZS-40" value="" style="endArrow=classic;html=1;rounded=0;strokeColor=#FF6666;endSize=3;fillColor=#fad9d5;entryX=0;entryY=0.5;entryDx=0;entryDy=0;dashed=1;" edge="1" parent="1" target="5JmAVNSWhE5RKQXvFqZS-16">
          <mxGeometry width="50" height="50" relative="1" as="geometry">
            <mxPoint x="400" y="600" as="sourcePoint" />
            <mxPoint x="460" y="610" as="targetPoint" />
          </mxGeometry>
        </mxCell>
        <mxCell id="5JmAVNSWhE5RKQXvFqZS-41" value="" style="endArrow=classic;html=1;rounded=0;strokeColor=light-dark(#66c4ff, #004a4a);jumpSize=6;endSize=3;entryX=1;entryY=0.5;entryDx=0;entryDy=0;exitX=1;exitY=0.5;exitDx=0;exitDy=0;dashed=1;" edge="1" parent="1" source="5JmAVNSWhE5RKQXvFqZS-17" target="5JmAVNSWhE5RKQXvFqZS-15">
          <mxGeometry width="50" height="50" relative="1" as="geometry">
            <mxPoint x="441" y="485" as="sourcePoint" />
            <mxPoint x="448" y="438" as="targetPoint" />
          </mxGeometry>
        </mxCell>
        <mxCell id="5JmAVNSWhE5RKQXvFqZS-42" value="" style="endArrow=classic;html=1;rounded=0;strokeColor=light-dark(#66c4ff, #004a4a);jumpSize=6;endSize=3;entryX=0;entryY=0.5;entryDx=0;entryDy=0;exitX=1;exitY=0.5;exitDx=0;exitDy=0;" edge="1" parent="1" source="5JmAVNSWhE5RKQXvFqZS-15" target="5JmAVNSWhE5RKQXvFqZS-18">
          <mxGeometry width="50" height="50" relative="1" as="geometry">
            <mxPoint x="420" y="610" as="sourcePoint" />
            <mxPoint x="441" y="485" as="targetPoint" />
          </mxGeometry>
        </mxCell>
        <mxCell id="5JmAVNSWhE5RKQXvFqZS-43" value="" style="endArrow=classic;html=1;rounded=0;strokeColor=light-dark(#66c4ff, #004a4a);jumpSize=6;endSize=3;exitX=1;exitY=0.5;exitDx=0;exitDy=0;" edge="1" parent="1" source="5JmAVNSWhE5RKQXvFqZS-18">
          <mxGeometry width="50" height="50" relative="1" as="geometry">
            <mxPoint x="507" y="485" as="sourcePoint" />
            <mxPoint x="570" y="600" as="targetPoint" />
          </mxGeometry>
        </mxCell>
        <mxCell id="5JmAVNSWhE5RKQXvFqZS-44" value="" style="endArrow=classic;html=1;rounded=0;strokeColor=#FF6666;endSize=3;fillColor=#fad9d5;dashed=1;exitX=1;exitY=0.5;exitDx=0;exitDy=0;" edge="1" parent="1" source="5JmAVNSWhE5RKQXvFqZS-16">
          <mxGeometry width="50" height="50" relative="1" as="geometry">
            <mxPoint x="460" y="610" as="sourcePoint" />
            <mxPoint x="550" y="600" as="targetPoint" />
          </mxGeometry>
        </mxCell>
        <mxCell id="5JmAVNSWhE5RKQXvFqZS-46" value="" style="rounded=0;whiteSpace=wrap;html=1;fontSize=10;fontFamily=Times New Roman;fontStyle=2;fillColor=#d0cee2;strokeColor=#56517e;" vertex="1" parent="1">
          <mxGeometry x="570" y="405" width="20" height="10" as="geometry" />
        </mxCell>
        <mxCell id="5JmAVNSWhE5RKQXvFqZS-47" value="" style="rounded=0;whiteSpace=wrap;html=1;fontSize=10;fontStyle=2;fontFamily=Times New Roman;fillColor=#d5e8d4;strokeColor=#82b366;" vertex="1" parent="1">
          <mxGeometry x="570" y="425" width="20" height="10" as="geometry" />
        </mxCell>
        <mxCell id="5JmAVNSWhE5RKQXvFqZS-48" value="" style="rounded=0;whiteSpace=wrap;html=1;fontFamily=Times New Roman;fillColor=#ffe6cc;strokeColor=#d79b00;" vertex="1" parent="1">
          <mxGeometry x="570" y="445" width="20" height="10" as="geometry" />
        </mxCell>
        <mxCell id="5JmAVNSWhE5RKQXvFqZS-49" value="" style="endArrow=none;html=1;rounded=0;strokeColor=light-dark(#66c4ff, #004a4a);jumpSize=6;endSize=3;startFill=0;strokeWidth=3;" edge="1" parent="1">
          <mxGeometry width="50" height="50" relative="1" as="geometry">
            <mxPoint x="640" y="410" as="sourcePoint" />
            <mxPoint x="660" y="410" as="targetPoint" />
          </mxGeometry>
        </mxCell>
        <mxCell id="5JmAVNSWhE5RKQXvFqZS-50" value="" style="endArrow=none;html=1;rounded=0;strokeColor=#FF6666;endSize=3;fillColor=#fad9d5;exitX=1;exitY=0.5;exitDx=0;exitDy=0;strokeWidth=3;startFill=0;" edge="1" parent="1">
          <mxGeometry width="50" height="50" relative="1" as="geometry">
            <mxPoint x="640" y="429.83" as="sourcePoint" />
            <mxPoint x="660" y="429.83" as="targetPoint" />
          </mxGeometry>
        </mxCell>
        <mxCell id="5JmAVNSWhE5RKQXvFqZS-51" value="AGV1" style="text;html=1;align=center;verticalAlign=middle;resizable=0;points=[];autosize=1;strokeColor=none;fillColor=none;fontSize=10;fontFamily=Times New Roman;fontStyle=2" vertex="1" parent="1">
          <mxGeometry x="650" y="395" width="50" height="30" as="geometry" />
        </mxCell>
        <mxCell id="5JmAVNSWhE5RKQXvFqZS-52" value="AGV2" style="text;html=1;align=center;verticalAlign=middle;resizable=0;points=[];autosize=1;strokeColor=none;fillColor=none;fontSize=10;fontFamily=Times New Roman;fontStyle=2" vertex="1" parent="1">
          <mxGeometry x="650" y="415" width="50" height="30" as="geometry" />
        </mxCell>
        <mxCell id="5JmAVNSWhE5RKQXvFqZS-53" value="Job1" style="text;html=1;align=center;verticalAlign=middle;resizable=0;points=[];autosize=1;strokeColor=none;fillColor=none;fontSize=10;fontFamily=Times New Roman;fontStyle=2" vertex="1" parent="1">
          <mxGeometry x="590" y="395" width="40" height="30" as="geometry" />
        </mxCell>
        <mxCell id="5JmAVNSWhE5RKQXvFqZS-54" value="Job2" style="text;html=1;align=center;verticalAlign=middle;resizable=0;points=[];autosize=1;strokeColor=none;fillColor=none;fontSize=10;fontFamily=Times New Roman;fontStyle=2" vertex="1" parent="1">
          <mxGeometry x="590" y="415" width="40" height="30" as="geometry" />
        </mxCell>
        <mxCell id="5JmAVNSWhE5RKQXvFqZS-55" value="Job3" style="text;html=1;align=center;verticalAlign=middle;resizable=0;points=[];autosize=1;strokeColor=none;fillColor=none;fontSize=10;fontFamily=Times New Roman;fontStyle=2" vertex="1" parent="1">
          <mxGeometry x="590" y="435" width="40" height="30" as="geometry" />
        </mxCell>
      </root>
    </mxGraphModel>
  </diagram>
</mxfile>
